<?xml version="1.0" standalone="no"?>
<!DOCTYPE svg PUBLIC "-//W3C//DTD SVG 20010904//EN"
 "http://www.w3.org/TR/2001/REC-SVG-20010904/DTD/svg10.dtd">
<svg version="1.0" xmlns="http://www.w3.org/2000/svg"
 width="300.000000pt" height="190.000000pt" viewBox="0 0 300.000000 190.000000"
 preserveAspectRatio="xMidYMid meet">
<metadata>
Created by potrace 1.10, written by Peter Selinger 2001-2011
</metadata>
<g transform="translate(0.000000,190.000000) scale(0.100000,-0.100000)"
fill="#000000" stroke="none">
<path d="M185 1659 c-4 -6 -5 -12 -2 -15 2 -3 7 2 10 11 7 17 1 20 -8 4z"/>
<path d="M1410 1549 c-51 -14 -151 -58 -254 -110 -112 -58 -150 -103 -170
-206 -8 -37 -22 -97 -31 -133 -42 -158 20 -492 106 -564 75 -63 172 -114 265
-140 54 -16 106 -32 115 -37 26 -13 70 -19 145 -20 86 0 168 28 210 72 16 17
52 46 79 64 78 51 128 111 186 223 53 103 54 104 57 210 5 110 -6 183 -38 256
-11 26 -71 95 -166 191 -136 138 -155 153 -214 175 -73 27 -227 37 -290 19z
m267 -35 c81 -30 114 -56 242 -192 163 -172 176 -202 176 -402 l0 -105 -54
-105 c-57 -113 -98 -162 -176 -215 -27 -18 -59 -43 -70 -55 -20 -22 -85 -60
-115 -68 -56 -13 -164 -13 -203 1 -23 8 -73 23 -112 33 -148 38 -285 122 -328
203 -13 25 -35 89 -48 141 -29 118 -32 307 -6 380 9 25 17 55 17 68 0 12 4 22
10 22 5 0 7 7 4 15 -4 8 6 40 21 70 23 47 36 61 94 95 38 22 99 52 137 67 38
14 75 31 82 36 46 36 244 43 329 11z"/>
<path d="M1174 1012 c-16 -10 -44 -68 -44 -90 0 -23 23 -35 38 -20 6 6 20 7
33 2 32 -11 52 -11 66 -1 7 5 18 5 25 1 17 -11 129 -12 151 -1 11 5 23 4 31
-2 10 -8 17 -7 26 4 11 13 15 13 33 0 14 -10 25 -11 39 -4 10 5 24 6 31 2 13
-9 209 -15 243 -8 19 4 21 11 20 62 l-1 58 -33 3 c-39 4 -62 -12 -57 -38 2
-11 0 -22 -6 -25 -5 -4 -9 5 -9 18 0 14 -7 30 -15 37 -20 17 -45 -3 -46 -39
l-2 -26 -4 25 c-3 14 -12 29 -21 35 -23 13 -83 14 -104 1 -11 -7 -21 -6 -30 1
-14 12 -46 11 -66 -1 -6 -4 -18 -4 -24 1 -21 12 -99 14 -113 3 -9 -8 -15 -8
-20 0 -9 15 -62 12 -77 -4 -11 -11 -16 -11 -33 0 -11 7 -25 10 -31 6z m40 -53
c9 -23 14 -44 10 -48 -4 -3 -9 0 -11 7 -3 6 -15 12 -28 12 -13 0 -25 -6 -28
-12 -2 -7 -7 -11 -9 -8 -8 7 30 90 41 90 5 0 16 -19 25 -41z m99 27 c3 -7 0
-19 -6 -25 -8 -8 -8 -14 1 -23 14 -14 16 -28 3 -28 -5 0 -13 9 -16 20 -3 11
-13 20 -22 20 -10 0 -14 -6 -10 -20 3 -11 2 -20 -3 -20 -4 0 -10 20 -12 45 -3
45 -3 45 28 45 18 0 34 -6 37 -14z m87 3 c0 -6 -8 -8 -19 -4 -30 9 -35 -14 -6
-25 17 -7 25 -16 23 -28 -4 -21 -46 -29 -62 -11 -8 9 -6 10 11 6 33 -7 39 11
9 23 -29 11 -32 20 -14 38 15 15 58 16 58 1z m40 -9 c0 -13 7 -20 20 -20 13 0
20 7 20 20 0 11 5 20 10 20 6 0 10 -20 10 -45 0 -25 -4 -45 -10 -45 -5 0 -10
9 -10 20 0 13 -7 20 -20 20 -13 0 -20 -7 -20 -20 0 -11 -4 -20 -10 -20 -5 0
-10 20 -10 45 0 25 5 45 10 45 6 0 10 -9 10 -20z m100 -12 l12 -33 14 33 c8
17 18 32 24 32 11 0 -23 -83 -36 -87 -5 -2 -16 14 -24 34 -8 21 -16 41 -18 46
-2 4 1 7 6 7 6 0 15 -15 22 -32z m90 -13 c0 -25 -4 -45 -10 -45 -5 0 -10 20
-10 45 0 25 5 45 10 45 6 0 10 -20 10 -45z m40 10 c0 -28 4 -35 20 -35 11 0
20 -4 20 -10 0 -5 -13 -10 -30 -10 -29 0 -30 2 -30 45 0 25 5 45 10 45 6 0 10
-16 10 -35z m70 0 c0 -28 4 -35 20 -35 11 0 20 -4 20 -10 0 -5 -13 -10 -30
-10 -29 0 -30 2 -30 45 0 25 5 45 10 45 6 0 10 -16 10 -35z m120 24 c0 -7 -10
-9 -25 -5 -19 5 -25 2 -25 -10 0 -11 6 -15 20 -11 11 3 23 1 26 -4 3 -5 -6 -9
-20 -9 -14 0 -26 -4 -26 -10 0 -5 11 -10 25 -10 14 0 25 -4 25 -10 0 -5 -13
-10 -30 -10 -24 0 -30 4 -30 23 0 12 -3 32 -6 45 -6 20 -3 22 30 22 20 0 36
-5 36 -11z"/>
<path d="M1180 968 c0 -9 5 -20 10 -23 13 -8 13 5 0 25 -8 13 -10 13 -10 -2z"/>
<path d="M1267 984 c-13 -13 -7 -24 14 -24 11 0 19 5 17 12 -5 14 -22 21 -31
12z"/>
</g>
</svg>
