<?xml version="1.0" standalone="no"?>
<!DOCTYPE svg PUBLIC "-//W3C//DTD SVG 20010904//EN"
 "http://www.w3.org/TR/2001/REC-SVG-20010904/DTD/svg10.dtd">
<svg version="1.0" xmlns="http://www.w3.org/2000/svg"
 width="350.000000pt" height="142.000000pt" viewBox="0 0 863.000000 349.000000"
 preserveAspectRatio="xMidYMid meet">
<metadata>
Created by potrace 1.16, written by Peter Selinger 2001-2019
</metadata>
<g transform="translate(0.000000,349.000000) scale(0.100000,-0.100000)"
fill="#000000" stroke="none">
<path d="M340 3350 l0 -80 105 0 105 0 0 -365 0 -365 100 0 100 0 0 365 0 365
104 0 103 0 7 51 c4 29 10 65 13 80 l6 29 -322 0 -321 0 0 -80z"/>
<path d="M1030 2985 l0 -445 100 0 100 0 0 190 0 190 150 0 150 0 0 -190 0
-190 100 0 100 0 0 445 0 445 -100 0 -100 0 0 -175 0 -175 -150 0 -150 0 0
175 0 175 -100 0 -100 0 0 -445z"/>
<path d="M1850 2985 l0 -445 290 0 290 0 0 80 0 80 -185 0 -185 0 0 110 0 110
135 0 134 0 6 33 c3 17 9 53 14 80 l8 47 -148 0 -149 0 0 95 0 95 175 0 175 0
0 80 0 80 -280 0 -280 0 0 -445z"/>
<path d="M2625 2386 c-112 -37 -180 -85 -222 -155 -83 -138 -63 -300 51 -414
47 -48 81 -70 175 -114 220 -103 234 -114 251 -189 25 -106 -36 -196 -141
-210 -58 -8 -133 13 -248 69 -48 23 -89 43 -93 45 -5 2 -16 -16 -27 -40 -10
-24 -28 -64 -39 -88 -11 -25 -18 -49 -15 -54 7 -10 115 -60 177 -81 202 -69
412 -39 529 73 128 123 154 334 58 474 -27 38 -95 93 -149 118 -20 10 -80 38
-132 62 -110 52 -155 86 -175 135 -19 46 -19 113 1 141 51 73 201 70 353 -8
24 -12 47 -18 51 -13 4 4 26 42 49 84 48 90 48 89 -84 138 -109 40 -290 53
-370 27z"/>
<path d="M552 2378 c-7 -7 -12 -18 -12 -24 0 -7 -11 -39 -24 -71 -23 -54 -38
-91 -99 -253 -14 -36 -44 -114 -67 -175 -69 -178 -87 -226 -115 -300 -14 -38
-30 -79 -35 -90 -4 -11 -14 -38 -23 -60 -37 -99 -70 -183 -83 -213 -26 -61
-26 -62 100 -62 99 0 115 2 121 18 11 27 105 295 105 299 0 2 100 2 221 1
l222 -3 53 -155 c30 -85 54 -156 54 -157 0 -2 56 -3 125 -3 69 0 125 2 125 5
0 3 -11 33 -24 67 -13 35 -36 95 -51 133 -55 143 -77 202 -102 265 -14 36 -32
83 -40 105 -9 22 -19 49 -24 60 -5 11 -20 49 -33 85 -23 63 -136 359 -179 470
-12 30 -26 58 -32 62 -17 13 -170 9 -183 -4z m123 -375 c15 -49 48 -152 75
-230 l48 -143 -155 0 c-120 0 -154 3 -150 13 2 6 34 104 71 217 79 244 74 230
80 230 3 0 17 -39 31 -87z"/>
<path d="M1338 2384 c-5 -4 -8 -288 -8 -631 l0 -623 115 0 115 0 0 265 c0 231
2 266 15 272 9 3 43 0 77 -7 51 -11 68 -21 113 -65 54 -53 79 -94 153 -255 23
-52 49 -109 57 -125 7 -17 18 -43 24 -58 l11 -27 125 0 c79 0 125 4 125 10 0
10 -30 86 -72 180 -11 25 -26 59 -33 75 -62 147 -111 228 -174 293 -24 24 -41
45 -39 46 2 2 25 14 51 27 57 28 101 74 130 138 17 37 21 66 22 146 0 92 -3
105 -30 160 -37 73 -104 127 -195 157 -58 19 -94 22 -320 26 -140 2 -258 1
-262 -4z m402 -174 c99 -19 160 -93 160 -195 0 -66 -32 -121 -85 -149 -32 -17
-63 -22 -147 -24 l-108 -4 0 191 0 191 64 0 c35 0 87 -5 116 -10z"/>
<path d="M3327 2383 c-4 -3 -7 -287 -7 -630 l0 -623 120 0 120 0 0 280 0 280
245 0 245 0 0 -280 0 -280 120 0 120 0 0 625 0 625 -22 5 c-13 3 -66 5 -118 3
l-95 -3 -3 -257 -2 -258 -245 0 -245 0 0 254 c0 222 -2 255 -16 260 -21 8
-209 8 -217 -1z"/>
<path d="M4395 2380 c-8 -13 -6 -20 88 -270 122 -327 158 -424 241 -650 32
-85 61 -164 66 -175 6 -11 21 -49 34 -85 l24 -65 95 -3 95 -3 15 43 c8 24 26
72 40 108 13 36 43 117 67 180 23 63 48 129 55 145 7 17 24 62 38 100 37 102
176 474 192 515 36 92 55 152 50 161 -4 5 -55 9 -115 9 -127 0 -112 12 -164
-136 -18 -54 -59 -171 -90 -259 -70 -199 -161 -470 -170 -510 -6 -24 -28 32
-132 340 -68 204 -138 410 -155 460 -17 49 -36 93 -42 97 -18 12 -225 10 -232
-2z"/>
<path d="M5607 2383 c-4 -3 -7 -287 -7 -630 l0 -624 118 3 117 3 3 619 c2 489
0 621 -10 628 -16 9 -212 11 -221 1z"/>
<path d="M6087 2384 c-4 -4 -7 -288 -7 -631 l0 -623 350 0 351 0 -3 88 -3 87
-232 3 -233 2 -2 538 -3 537 -106 3 c-58 1 -108 -1 -112 -4z"/>
<path d="M6897 2384 c-4 -4 -7 -288 -7 -631 l0 -623 350 0 350 0 0 90 0 90
-230 0 -230 0 -2 538 -3 537 -111 3 c-60 1 -113 -1 -117 -4z"/>
<path d="M7717 2383 c-4 -3 -7 -287 -7 -630 l0 -623 390 0 390 0 0 90 0 90
-275 0 -275 0 0 190 0 190 202 2 202 3 12 70 c7 39 13 78 13 87 1 16 -17 18
-211 20 l-213 3 0 165 0 165 258 3 258 2 -3 88 -3 87 -366 3 c-201 1 -368 -1
-372 -5z"/>
<path d="M6507 956 c-129 -48 -198 -150 -182 -270 14 -108 65 -163 222 -238
57 -28 110 -60 118 -71 8 -12 15 -40 15 -62 0 -46 -26 -78 -71 -89 -33 -7
-118 17 -192 56 -31 17 -59 29 -60 27 -7 -10 -67 -146 -67 -153 0 -12 140 -72
199 -86 70 -17 184 -9 241 17 50 22 113 82 137 128 22 41 29 154 13 211 -20
71 -70 116 -191 173 -109 51 -143 78 -154 123 -10 38 10 66 55 78 32 9 50 7
102 -11 34 -11 74 -27 88 -34 26 -14 27 -13 68 58 l42 72 -21 17 c-59 50 -284
83 -362 54z"/>
<path d="M6980 515 l0 -445 100 0 100 0 0 445 0 445 -100 0 -100 0 0 -445z"/>
<path d="M7230 880 l0 -80 105 0 105 0 0 -365 0 -365 100 0 100 0 0 365 0 365
104 0 103 0 7 51 c4 29 10 65 13 80 l6 29 -322 0 -321 0 0 -80z"/>
<path d="M7920 515 l0 -445 285 0 285 0 0 80 0 80 -185 0 -185 0 0 110 0 110
134 0 134 0 11 63 c18 106 31 97 -134 97 l-145 0 0 95 0 95 175 0 175 0 0 80
0 80 -275 0 -275 0 0 -445z"/>
</g>
</svg>
